<svg id="Layer_1" data-name="Layer 1" xmlns="http://www.w3.org/2000/svg" width="488.11" height="37.33" viewBox="0 0 488.11 37.33">
  <defs>
    <style>
      .cls-1 {
        fill: #c6c6c5;
      }

      .cls-2 {
        fill: #fff;
      }
    </style>
  </defs>
  <g>
    <path class="cls-1" d="M71.6,34.33a3.06,3.06,0,0,1-.95,2.54,4.66,4.66,0,0,1-5.1,0,3.12,3.12,0,0,1-.93-2.54,2.87,2.87,0,0,1,.93-2.47,5.06,5.06,0,0,1,5.1,0A2.83,2.83,0,0,1,71.6,34.33Zm-6.09-4.5c-.15-1.11-.28-2.15-.39-3.1s-.2-1.88-.26-2.79-.11-1.82-.13-2.74,0-1.93,0-3V13.93h6.73v4.28c0,1.06,0,2.06,0,3s-.07,1.84-.13,2.74-.15,1.84-.26,2.79-.24,2-.39,3.1Z" transform="translate(-64.62 -8.47)"/>
    <path class="cls-1" d="M102.21,36.59a20.49,20.49,0,0,1-2.75-.18,5.41,5.41,0,0,1-2.38-.93,6.93,6.93,0,0,1-2.12.85,10.69,10.69,0,0,1-2.34.26,8.65,8.65,0,0,1-2.8-.43,6,6,0,0,1-2.21-1.26,5.41,5.41,0,0,1-1.43-2.12,8.1,8.1,0,0,1-.5-3v-1c0-.35,0-.61,0-.78a1.5,1.5,0,0,1,.09-.45h-.71a.61.61,0,0,0-.44.19.54.54,0,0,0-.19.41V44.35H77.73V28.61a9.73,9.73,0,0,1,.43-2.92,6.6,6.6,0,0,1,1.37-2.47,7,7,0,0,1,2.41-1.73,8.79,8.79,0,0,1,3.55-.65h7.76a8.85,8.85,0,0,1,3.31.54,5.45,5.45,0,0,1,2.14,1.49,5.59,5.59,0,0,1,1.13,2.21,10.65,10.65,0,0,1,.33,2.71v1a.56.56,0,0,0,.19.43.63.63,0,0,0,.44.16h1.42a.76.76,0,0,1,.39.1.7.7,0,0,1,.27.42,3.84,3.84,0,0,1,.15,1c0,.47,0,1.12,0,1.93s0,1.55,0,2.05a4.48,4.48,0,0,1-.15,1.11q-.11.38-.27.45A1,1,0,0,1,102.21,36.59Zm-9.36-6.54a1.33,1.33,0,0,0,.7-.18.68.68,0,0,0,.3-.63v-1a.67.67,0,0,0-.32-.63,1.27,1.27,0,0,0-.68-.19,1.35,1.35,0,0,0-.73.19.66.66,0,0,0-.31.63v1a.67.67,0,0,0,.31.63A1.44,1.44,0,0,0,92.85,30.05Z" transform="translate(-64.62 -8.47)"/>
    <path class="cls-1" d="M103.62,29.42a.63.63,0,0,0,.44-.16.56.56,0,0,0,.19-.43V23.29H111v5.54a.52.52,0,0,0,.59.59H113a.71.71,0,0,1,.39.1.61.61,0,0,1,.26.42,4.5,4.5,0,0,1,.13,1c0,.47,0,1.12,0,1.93s0,1.55,0,2.05a5.25,5.25,0,0,1-.13,1.11c-.06.25-.14.4-.26.45a.94.94,0,0,1-.39.07h-1.15a11.22,11.22,0,0,1-2.32-.22,3.71,3.71,0,0,1-1.84-1,4.4,4.4,0,0,1-1.8,1,7,7,0,0,1-1.65.22h-2a.94.94,0,0,1-.39-.07c-.12-.05-.2-.19-.26-.43a4.79,4.79,0,0,1-.13-1.06c0-.47,0-1.11,0-1.93s0-1.55,0-2a5,5,0,0,1,.13-1.1.64.64,0,0,1,.26-.44.71.71,0,0,1,.39-.1Zm9.21,14.3H102.21V38.6h10.62Z" transform="translate(-64.62 -8.47)"/>
    <path class="cls-1" d="M114.43,29.42a.63.63,0,0,0,.44-.16.59.59,0,0,0,.19-.43V23.29h6.76v5.54a.52.52,0,0,0,.59.59h1.41a.71.71,0,0,1,.39.1.65.65,0,0,1,.26.42,5.14,5.14,0,0,1,.13,1c0,.47,0,1.12,0,1.93s0,1.55,0,2.05a6,6,0,0,1-.13,1.11c-.06.25-.15.4-.26.45a.94.94,0,0,1-.39.07h-1.15a11.22,11.22,0,0,1-2.32-.22,3.67,3.67,0,0,1-1.84-1,4.4,4.4,0,0,1-1.8,1,7,7,0,0,1-1.65.22h-2a1,1,0,0,1-.39-.07c-.11-.05-.19-.19-.26-.43a6.43,6.43,0,0,1-.13-1.06c0-.47,0-1.11,0-1.93s0-1.55,0-2a6.59,6.59,0,0,1,.13-1.1.72.72,0,0,1,.26-.44.73.73,0,0,1,.39-.1Zm7.39-8.17h-6.76V16.16h6.76Z" transform="translate(-64.62 -8.47)"/>
    <path class="cls-1" d="M131.18,29.42q.63,0,.63-.48a1.23,1.23,0,0,0-.41-.74l-6.76-6.73v-4.9l14.52-5.31L140.8,18l-7.17,2.68,2.86,2.86q2,2,3.32,3.17A22.52,22.52,0,0,0,142,28.48a6,6,0,0,0,1.54.78,5,5,0,0,0,1.26.16h.64a.64.64,0,0,1,.37.1.79.79,0,0,1,.26.42,4.86,4.86,0,0,1,.15,1c0,.47,0,1.12,0,1.93s0,1.55,0,2.05a5.7,5.7,0,0,1-.15,1.11c-.08.25-.16.4-.26.45a.84.84,0,0,1-.37.07h-.64c-.86,0-1.61,0-2.24-.05a9.32,9.32,0,0,1-1.71-.26,5.26,5.26,0,0,1-1.41-.62,7.55,7.55,0,0,1-1.36-1.11,5.55,5.55,0,0,1-2.3,1.56,8.88,8.88,0,0,1-3,.48h-9a.94.94,0,0,1-.39-.07c-.11-.05-.2-.19-.26-.43A6.43,6.43,0,0,1,123,35c0-.47,0-1.11,0-1.93s0-1.55,0-2a6.59,6.59,0,0,1,.13-1.1.68.68,0,0,1,.26-.44.71.71,0,0,1,.39-.1Z" transform="translate(-64.62 -8.47)"/>
    <path class="cls-1" d="M146.89,29.42a.63.63,0,0,0,.44-.16.56.56,0,0,0,.19-.43V23.29h6.76v5.54a.52.52,0,0,0,.59.59h1.41a.71.71,0,0,1,.39.1.65.65,0,0,1,.26.42,4.5,4.5,0,0,1,.13,1c0,.47,0,1.12,0,1.93s0,1.55,0,2.05a5.25,5.25,0,0,1-.13,1.11c-.06.25-.15.4-.26.45a.94.94,0,0,1-.39.07h-1.15a11.22,11.22,0,0,1-2.32-.22,3.67,3.67,0,0,1-1.84-1,4.4,4.4,0,0,1-1.8,1,7,7,0,0,1-1.65.22h-2a1,1,0,0,1-.4-.07c-.11-.05-.19-.19-.25-.43A4.79,4.79,0,0,1,144.7,35c0-.47,0-1.11,0-1.93s0-1.55,0-2a5,5,0,0,1,.13-1.1.67.67,0,0,1,.25-.44.77.77,0,0,1,.4-.1Zm9.21,14.3H145.48V38.6H156.1Z" transform="translate(-64.62 -8.47)"/>
    <path class="cls-1" d="M158.33,28.83a8.26,8.26,0,0,1,2-5.85,7.09,7.09,0,0,1,5.44-2.14A6.8,6.8,0,0,1,171.21,23,8.32,8.32,0,0,1,173,28.61v.22a.59.59,0,0,0,.19.43.64.64,0,0,0,.45.16h1.41a.62.62,0,0,1,.37.1.79.79,0,0,1,.26.42,4.86,4.86,0,0,1,.15,1c0,.47,0,1.12,0,1.93s0,1.55,0,2.05a5.7,5.7,0,0,1-.15,1.11c-.08.25-.16.4-.26.45a.82.82,0,0,1-.37.07,19.74,19.74,0,0,1-2.83-.2,5.84,5.84,0,0,1-2.41-1,8.07,8.07,0,0,1-4.35,1.15,7.58,7.58,0,0,1-2.11-.3,4.61,4.61,0,0,1-1.79-.92,3.52,3.52,0,0,1-.94.63,6.69,6.69,0,0,1-1.12.37,7,7,0,0,1-1.39.18c-.52,0-1.14,0-1.86,0a.94.94,0,0,1-.39-.07c-.11-.05-.19-.19-.26-.43A6.43,6.43,0,0,1,155.5,35c0-.47,0-1.11,0-1.93s0-1.55,0-2a6.59,6.59,0,0,1,.13-1.1.72.72,0,0,1,.26-.44.71.71,0,0,1,.39-.1h1.41a.64.64,0,0,0,.45-.16A.59.59,0,0,0,158.33,28.83Zm6.12-.22c0,.52.12.85.34,1a1.41,1.41,0,0,0,.82.22,1.29,1.29,0,0,0,.74-.22c.22-.15.33-.48.33-1,0-.82-.36-1.23-1.07-1.23S164.45,27.79,164.45,28.61Z" transform="translate(-64.62 -8.47)"/>
    <path class="cls-1" d="M177.34,29.42a.6.6,0,0,0,.6-.59V23.29h6.72v6.13a9,9,0,0,1-.5,3.12,6.27,6.27,0,0,1-1.39,2.23,5.89,5.89,0,0,1-2.14,1.36,7.64,7.64,0,0,1-2.69.46h-2.86a.94.94,0,0,1-.39-.07c-.11-.05-.2-.19-.26-.43A5.49,5.49,0,0,1,174.3,35c0-.47,0-1.11,0-1.93s0-1.55,0-2a5.66,5.66,0,0,1,.13-1.1.68.68,0,0,1,.26-.44.71.71,0,0,1,.39-.1Zm7.36-8.17h-6.76V16.16h6.76Z" transform="translate(-64.62 -8.47)"/>
    <path class="cls-1" d="M199.78,29a1.3,1.3,0,0,0-.08-.37c0-.15-.16-.43-.33-.85l-3.05-7.95L202.64,17l4.53,11.85a.82.82,0,0,0,.81.59h1.19a.71.71,0,0,1,.39.1.65.65,0,0,1,.26.42,5.14,5.14,0,0,1,.13,1c0,.47,0,1.12,0,1.93s0,1.55,0,2.05a6,6,0,0,1-.13,1.11c-.06.25-.15.4-.26.45a.94.94,0,0,1-.39.07h-1.82a9.16,9.16,0,0,1-1.82-.22,3.66,3.66,0,0,1-1.85-1,5.15,5.15,0,0,1-1.69,1,5,5,0,0,1-1.4.22H191.2l-.6-7.17h8.69C199.61,29.42,199.78,29.29,199.78,29Z" transform="translate(-64.62 -8.47)"/>
    <path class="cls-1" d="M210.58,29.42a.64.64,0,0,0,.45-.16.59.59,0,0,0,.19-.43V23.29H218v5.54a.52.52,0,0,0,.59.59H220a.71.71,0,0,1,.39.1.65.65,0,0,1,.26.42,5.14,5.14,0,0,1,.13,1c0,.47,0,1.12,0,1.93s0,1.55,0,2.05a6,6,0,0,1-.13,1.11c-.06.25-.15.4-.26.45a.94.94,0,0,1-.39.07h-1.15a11.15,11.15,0,0,1-2.32-.22,3.67,3.67,0,0,1-1.84-1,4.47,4.47,0,0,1-1.8,1,7,7,0,0,1-1.65.22h-2.05a.94.94,0,0,1-.39-.07c-.11-.05-.2-.19-.26-.43a6.43,6.43,0,0,1-.13-1.06c0-.47,0-1.11,0-1.93s0-1.55,0-2a6.59,6.59,0,0,1,.13-1.1.68.68,0,0,1,.26-.44.71.71,0,0,1,.39-.1Zm9.21,14.3H209.17V38.6h10.62Z" transform="translate(-64.62 -8.47)"/>
    <path class="cls-1" d="M221.39,29.42a.67.67,0,0,0,.45-.16.58.58,0,0,0,.18-.43V13.93h6.76V29.42a8.76,8.76,0,0,1-.52,3.2,6.13,6.13,0,0,1-1.41,2.22,5.4,5.4,0,0,1-2.13,1.32,8.13,8.13,0,0,1-2.7.43h-2a.94.94,0,0,1-.39-.07c-.11-.05-.2-.19-.26-.43A6.43,6.43,0,0,1,219.2,35c0-.47,0-1.11,0-1.93s0-1.55,0-2a6.59,6.59,0,0,1,.13-1.1.68.68,0,0,1,.26-.44.71.71,0,0,1,.39-.1Z" transform="translate(-64.62 -8.47)"/>
    <path class="cls-1" d="M248.58,29.42a.62.62,0,0,1,.37.1.68.68,0,0,1,.24.42,5.14,5.14,0,0,1,.13,1c0,.47,0,1.12,0,1.93s0,1.55,0,2.05a6,6,0,0,1-.13,1.11q-.09.38-.24.45a.82.82,0,0,1-.37.07h-2.12a11.61,11.61,0,0,1-.83,4,8.78,8.78,0,0,1-1.95,2.87,8.18,8.18,0,0,1-2.9,1.77,10.94,10.94,0,0,1-3.64.59h-5.53l-.41-7.17h6.35a2.49,2.49,0,0,0,1.73-.48,2.1,2.1,0,0,0,.5-1.56h-.6a11.58,11.58,0,0,1-3.79-.52,5.36,5.36,0,0,1-2.32-1.47,5.23,5.23,0,0,1-1.15-2.32,13.6,13.6,0,0,1-.31-3,9.64,9.64,0,0,1,.48-3,7.47,7.47,0,0,1,1.43-2.54,6.87,6.87,0,0,1,2.32-1.75,7.28,7.28,0,0,1,3.12-.65,9.31,9.31,0,0,1,2.9.45,6.16,6.16,0,0,1,2.41,1.43,6.87,6.87,0,0,1,1.65,2.52,10.22,10.22,0,0,1,.62,3.77ZM238,28.79a1.64,1.64,0,0,0,.22.93c.15.22.48.33,1,.33h1V29c0-.94-.39-1.41-1.16-1.41S238,28,238,28.79Z" transform="translate(-64.62 -8.47)"/>
    <path class="cls-1" d="M250.84,29.42a.59.59,0,0,0,.41-.16.56.56,0,0,0,.19-.43V23.29h6.72v6.13a9,9,0,0,1-.5,3.12,6.13,6.13,0,0,1-1.39,2.23,5.89,5.89,0,0,1-2.14,1.36,7.64,7.64,0,0,1-2.69.46h-2.86a.94.94,0,0,1-.39-.07c-.11-.05-.2-.19-.26-.43A5.49,5.49,0,0,1,247.8,35c0-.47,0-1.11,0-1.93s0-1.55,0-2a5.66,5.66,0,0,1,.13-1.1.68.68,0,0,1,.26-.44.71.71,0,0,1,.39-.1Zm8.36-8.17H248.58V16.16H259.2Z" transform="translate(-64.62 -8.47)"/>
    <path class="cls-1" d="M293.74,28.83a.53.53,0,0,0,.6.59.63.63,0,0,0,.44-.16.56.56,0,0,0,.19-.43V23.29h6.5v6.13a7.78,7.78,0,0,1-.6,3.2,6.25,6.25,0,0,1-1.59,2.22A6.33,6.33,0,0,1,297,36.16a8.18,8.18,0,0,1-2.65.43,9.08,9.08,0,0,1-1.82-.22,3.69,3.69,0,0,1-1.86-1,4.92,4.92,0,0,1-1.76,1,5.4,5.4,0,0,1-1.32.22,7.19,7.19,0,0,1-1.47-.15,3.33,3.33,0,0,1-1.17-.44l1-1.67a11.93,11.93,0,0,1-.67,4,9.66,9.66,0,0,1-1.95,3.33A9.16,9.16,0,0,1,280.19,44a10.51,10.51,0,0,1-4.24.81H274.1a11.21,11.21,0,0,1-4.11-.7,8.41,8.41,0,0,1-3.06-2A8.64,8.64,0,0,1,265,38.82a12.67,12.67,0,0,1-.67-4.27V26.79h6.72v7.94a2.77,2.77,0,0,0,.82,2.16,3.86,3.86,0,0,0,2.63.74h1.23a4,4,0,0,0,2.86-.82,2.73,2.73,0,0,0,.85-2.08V23.29h6.5v5.54a.56.56,0,0,0,.19.43.63.63,0,0,0,.44.16.53.53,0,0,0,.6-.59V23.29h6.57Zm1.82-7.58H284.94V16.16h10.62Zm-2.67-6.13h-5.31V10h5.31Z" transform="translate(-64.62 -8.47)"/>
    <path class="cls-1" d="M310.9,35a11,11,0,0,1-.7,3.93,10.18,10.18,0,0,1-2,3.25,9.22,9.22,0,0,1-7,3H297.2L296.57,38h3.9a4,4,0,0,0,2.84-.82,2.74,2.74,0,0,0,.83-2V23.29h6.76Zm0-13.71h-6.76V16.16h6.76Z" transform="translate(-64.62 -8.47)"/>
    <path class="cls-1" d="M330.51,29.42a.6.6,0,0,1,.37.1.74.74,0,0,1,.25.42,6,6,0,0,1,.13,1c0,.47,0,1.12,0,1.93s0,1.55,0,2.05a7,7,0,0,1-.13,1.11c-.07.25-.15.4-.25.45a.79.79,0,0,1-.37.07H328.4a11.85,11.85,0,0,1-.84,4,8.48,8.48,0,0,1-1.95,2.87,8.09,8.09,0,0,1-2.9,1.77,10.9,10.9,0,0,1-3.64.59h-5.53l-.41-7.17h6.35a2.47,2.47,0,0,0,1.73-.48,2.1,2.1,0,0,0,.5-1.56h-.59a11.54,11.54,0,0,1-3.79-.52A5.31,5.31,0,0,1,315,34.6a5.13,5.13,0,0,1-1.15-2.32,13,13,0,0,1-.32-3,9.64,9.64,0,0,1,.48-3,7.47,7.47,0,0,1,1.43-2.54,7,7,0,0,1,2.32-1.75,7.28,7.28,0,0,1,3.12-.65,9.26,9.26,0,0,1,2.9.45,6.2,6.2,0,0,1,2.42,1.43,7,7,0,0,1,1.65,2.52,10.23,10.23,0,0,1,.61,3.77Zm-10.62-.63a1.64,1.64,0,0,0,.22.93c.15.22.49.33,1,.33h1V29c0-.94-.38-1.41-1.15-1.41S319.89,28,319.89,28.79Z" transform="translate(-64.62 -8.47)"/>
    <path class="cls-1" d="M331.92,29.42a.64.64,0,0,0,.45-.16.59.59,0,0,0,.19-.43,8.26,8.26,0,0,1,2-5.85A7.1,7.1,0,0,1,340,20.84,6.8,6.8,0,0,1,345.44,23a8.32,8.32,0,0,1,1.82,5.65,8.21,8.21,0,0,1-2,5.85,7.24,7.24,0,0,1-5.54,2.13,7.58,7.58,0,0,1-2.11-.3,4.5,4.5,0,0,1-1.78-.92,3.73,3.73,0,0,1-.95.63,6.69,6.69,0,0,1-1.12.37,6.91,6.91,0,0,1-1.39.18c-.52,0-1.14,0-1.86,0a1,1,0,0,1-.39-.07c-.11-.05-.19-.19-.26-.43a6.43,6.43,0,0,1-.13-1.06c0-.47,0-1.11,0-1.93s0-1.55,0-2a6.59,6.59,0,0,1,.13-1.1.72.72,0,0,1,.26-.44.76.76,0,0,1,.39-.1Zm6.76-.81c0,.52.12.85.34,1a1.41,1.41,0,0,0,.82.22,1.29,1.29,0,0,0,.74-.22c.22-.15.33-.48.33-1,0-.82-.36-1.23-1.07-1.23S338.68,27.79,338.68,28.61Z" transform="translate(-64.62 -8.47)"/>
    <path class="cls-1" d="M350.53,15.94a2.58,2.58,0,0,0-.76.09,1.24,1.24,0,0,0-.57.62l-1.34,2.56-4.27-2.27,1.41-3a11.16,11.16,0,0,1,1-1.73A4.25,4.25,0,0,1,347,11.09a3.81,3.81,0,0,1,1.43-.54,13.14,13.14,0,0,1,2.06-.14h7.76v5.53Zm-1,2h6.76V36.59h-6.76Z" transform="translate(-64.62 -8.47)"/>
    <path class="cls-1" d="M372,36l.63-6.58h14.3a.62.62,0,0,1,.37.1.74.74,0,0,1,.26.42,3.84,3.84,0,0,1,.15,1c0,.47,0,1.12,0,1.93s0,1.55,0,2.05a4.48,4.48,0,0,1-.15,1.11.7.7,0,0,1-.26.45.82.82,0,0,1-.37.07h-1.67a8.94,8.94,0,0,1-.91,3.33,8.19,8.19,0,0,1-2.06,2.58,9.7,9.7,0,0,1-3.12,1.67,13.37,13.37,0,0,1-4.09.59h-2.67a11.21,11.21,0,0,1-4.11-.7,8.41,8.41,0,0,1-3.06-2,8.78,8.78,0,0,1-1.93-3.21,12.67,12.67,0,0,1-.67-4.27V26.79h6.72v7.94a2.77,2.77,0,0,0,.82,2.16,3.87,3.87,0,0,0,2.64.74h3.3a7.73,7.73,0,0,0,1.86-.2q.78-.21.78-.84a.52.52,0,0,0-.59-.59Z" transform="translate(-64.62 -8.47)"/>
    <path class="cls-1" d="M388.34,29.42a.67.67,0,0,0,.45-.16.58.58,0,0,0,.18-.43V23.29h6.76v5.54a.53.53,0,0,0,.6.59h1.41a.71.71,0,0,1,.39.1.65.65,0,0,1,.26.42,6,6,0,0,1,.13,1c0,.47,0,1.12,0,1.93s0,1.55,0,2.05a7,7,0,0,1-.13,1.11c-.06.25-.15.4-.26.45a.94.94,0,0,1-.39.07h-1.15a11.15,11.15,0,0,1-2.32-.22,3.67,3.67,0,0,1-1.84-1,4.53,4.53,0,0,1-1.8,1,7,7,0,0,1-1.66.22h-2a.94.94,0,0,1-.39-.07c-.11-.05-.2-.19-.26-.43a6.43,6.43,0,0,1-.13-1.06c0-.47,0-1.11,0-1.93s0-1.55,0-2a6.59,6.59,0,0,1,.13-1.1.68.68,0,0,1,.26-.44.71.71,0,0,1,.39-.1Zm9.21-8.17H386.93V16.16h10.62Z" transform="translate(-64.62 -8.47)"/>
    <path class="cls-1" d="M399.78,28.83a8.22,8.22,0,0,1,2-5.85,7.08,7.08,0,0,1,5.44-2.14A6.8,6.8,0,0,1,412.67,23a8.38,8.38,0,0,1,1.82,5.65v.22a.58.58,0,0,0,.18.43.67.67,0,0,0,.45.16h1.41a.62.62,0,0,1,.37.1.74.74,0,0,1,.26.42,3.84,3.84,0,0,1,.15,1c0,.47,0,1.12,0,1.93s0,1.55,0,2.05a4.48,4.48,0,0,1-.15,1.11.7.7,0,0,1-.26.45.82.82,0,0,1-.37.07,19.5,19.5,0,0,1-2.82-.2,5.88,5.88,0,0,1-2.42-1A8,8,0,0,1,407,36.59a7.65,7.65,0,0,1-2.12-.3,4.57,4.57,0,0,1-1.78-.92,3.57,3.57,0,0,1-.95.63,6.28,6.28,0,0,1-1.11.37,7,7,0,0,1-1.39.18c-.52,0-1.14,0-1.86,0a.94.94,0,0,1-.39-.07c-.11-.05-.2-.19-.26-.43A5.49,5.49,0,0,1,397,35c0-.47,0-1.11,0-1.93s0-1.55,0-2a5.66,5.66,0,0,1,.13-1.1.68.68,0,0,1,.26-.44.71.71,0,0,1,.39-.1h1.41a.67.67,0,0,0,.45-.16A.58.58,0,0,0,399.78,28.83Zm6.13-.22c0,.52.11.85.33,1a1.46,1.46,0,0,0,.82.22,1.29,1.29,0,0,0,.74-.22c.23-.15.34-.48.34-1q0-1.23-1.08-1.23C406.29,27.38,405.91,27.79,405.91,28.61Z" transform="translate(-64.62 -8.47)"/>
    <path class="cls-1" d="M417.94,29.42a.64.64,0,0,0,.45-.16.59.59,0,0,0,.19-.43V23.29h6.75v5.54a.53.53,0,0,0,.6.59h1.41a.71.71,0,0,1,.39.1.65.65,0,0,1,.26.42,5.14,5.14,0,0,1,.13,1c0,.47,0,1.12,0,1.93s0,1.55,0,2.05a6,6,0,0,1-.13,1.11c-.06.25-.15.4-.26.45a.94.94,0,0,1-.39.07h-1.15a11.15,11.15,0,0,1-2.32-.22,3.67,3.67,0,0,1-1.84-1,4.53,4.53,0,0,1-1.8,1,7,7,0,0,1-1.65.22h-2.05a.94.94,0,0,1-.39-.07c-.11-.05-.2-.19-.26-.43a6.43,6.43,0,0,1-.13-1.06c0-.47,0-1.11,0-1.93s0-1.55,0-2a6.59,6.59,0,0,1,.13-1.1.68.68,0,0,1,.26-.44.71.71,0,0,1,.39-.1Zm9.22,14.3H416.53V38.6h10.63Z" transform="translate(-64.62 -8.47)"/>
    <path class="cls-1" d="M429.79,29.42a6.62,6.62,0,0,1-.31-1.22,6.91,6.91,0,0,1-.1-1.19,7.36,7.36,0,0,1,.47-2.51,6.88,6.88,0,0,1,1.39-2.3,7.21,7.21,0,0,1,2.36-1.69,7.69,7.69,0,0,1,3.32-.67,9.43,9.43,0,0,1,3,.45,5.58,5.58,0,0,1,2.34,1.41,6.67,6.67,0,0,1,1.53,2.52,11.4,11.4,0,0,1,.55,3.79v1.41a7.74,7.74,0,0,1-.5,2.86,6,6,0,0,1-1.54,2.27,7.18,7.18,0,0,1-2.62,1.5,11.51,11.51,0,0,1-3.73.54h-8.58a.94.94,0,0,1-.39-.07c-.11-.05-.2-.19-.26-.43a5.49,5.49,0,0,1-.13-1.06c0-.47,0-1.11,0-1.93s0-1.55,0-2a5.66,5.66,0,0,1,.13-1.1.68.68,0,0,1,.26-.44.71.71,0,0,1,.39-.1ZM442.05,17.8H431.43V12.71h10.62Zm-4.31,11.85a1.54,1.54,0,0,0,.2-.75c0-.29,0-.59,0-.89a2.57,2.57,0,0,0-.24-1.13,1,1,0,0,0-1-.5,1,1,0,0,0-1,1,2.31,2.31,0,0,0,.32,1A3.61,3.61,0,0,0,437.74,29.65Z" transform="translate(-64.62 -8.47)"/>
    <path class="cls-1" d="M460.77,28.9c0,.35.19.52.59.52h1.41a.71.71,0,0,1,.39.1.65.65,0,0,1,.26.42,5.14,5.14,0,0,1,.13,1c0,.47,0,1.12,0,1.93s0,1.55,0,2.05a6,6,0,0,1-.13,1.11c-.06.25-.15.4-.26.45a.94.94,0,0,1-.39.07h-.59a10,10,0,0,1-1.56-.11,10.79,10.79,0,0,1-1,3.4,9.9,9.9,0,0,1-2,2.75,9.34,9.34,0,0,1-6.46,2.54h-4.09L446.43,38h3.9a4,4,0,0,0,2.84-.82,2.71,2.71,0,0,0,.84-2V23.29h6.76Z" transform="translate(-64.62 -8.47)"/>
    <path class="cls-1" d="M465,29.42a5.42,5.42,0,0,1-.23-1.82,6.2,6.2,0,0,1,.56-2.54,7.26,7.26,0,0,1,1.56-2.23,7.62,7.62,0,0,1,2.43-1.58,8.47,8.47,0,0,1,3.22-.59,5.42,5.42,0,0,1,1.78.26l3.75-3.72,7.43,7.88a7.68,7.68,0,0,1,1.71,2.58,7.26,7.26,0,0,1,.44,2.39,6.83,6.83,0,0,1-.48,2.57,6,6,0,0,1-1.41,2.08,6.74,6.74,0,0,1-2.25,1.39,8.44,8.44,0,0,1-3,.5h-4.49c-.84,0-1.62,0-2.32-.05a7.89,7.89,0,0,1-2-.36,13.36,13.36,0,0,1-2.6.36c-.92,0-1.68.05-2.3.05h-4.09a.94.94,0,0,1-.39-.07c-.11-.05-.2-.19-.26-.43A6.43,6.43,0,0,1,462,35c0-.47,0-1.11,0-1.93s0-1.55,0-2a6.59,6.59,0,0,1,.13-1.1.68.68,0,0,1,.26-.44.71.71,0,0,1,.39-.1Zm6.83.23a2.67,2.67,0,0,0,.8-.77,1.87,1.87,0,0,0,.32-1.09,1.28,1.28,0,0,0-.3-.82,1.09,1.09,0,0,0-1.64,0,1.32,1.32,0,0,0-.29.82,1.86,1.86,0,0,0,.31,1.09A2.67,2.67,0,0,0,471.87,29.65Zm8.88-.75a.57.57,0,0,0-.08-.28,2.73,2.73,0,0,0-.26-.35,6.67,6.67,0,0,0-.55-.57l-.93-.91V27a7,7,0,0,1-.13,1.35,9.89,9.89,0,0,1-.28,1.06h1.41a1.11,1.11,0,0,0,.65-.13A.45.45,0,0,0,480.75,28.9Z" transform="translate(-64.62 -8.47)"/>
    <path class="cls-1" d="M508.72,28.83a.58.58,0,0,0,.18.43.65.65,0,0,0,.45.16h1.41a.71.71,0,0,1,.39.1.65.65,0,0,1,.26.42,6,6,0,0,1,.13,1c0,.47,0,1.12,0,1.93s0,1.55,0,2.05a7,7,0,0,1-.13,1.11c-.06.25-.15.4-.26.45a.94.94,0,0,1-.39.07h-1.64a6.49,6.49,0,0,1-2.61-.54,3.62,3.62,0,0,1-1.88-2.1,4.94,4.94,0,0,1-1.91,1,10.09,10.09,0,0,1-2.36.24,7.81,7.81,0,0,1-2.66-.43,5.38,5.38,0,0,1-2.08-1.33,6.08,6.08,0,0,1-1.33-2.31,10.5,10.5,0,0,1-.47-3.32,8.73,8.73,0,0,1,.5-2.88,8.41,8.41,0,0,1,1.42-2.54A7,7,0,0,1,498,20.55a6.26,6.26,0,0,1,3-.71h1V17.57h6.73Zm-8.58-1.23c0,.42.09.7.28.82a1.35,1.35,0,0,0,.76.19,1.29,1.29,0,0,0,.91-.28,1,1,0,0,0,.28-.73V26.38h-1A1.08,1.08,0,0,0,500.14,27.6Z" transform="translate(-64.62 -8.47)"/>
    <path class="cls-1" d="M513,29.42a.59.59,0,0,0,.41-.16.56.56,0,0,0,.19-.43V23.29h6.72v6.13a9,9,0,0,1-.5,3.12,6.13,6.13,0,0,1-1.39,2.23,5.89,5.89,0,0,1-2.14,1.36,7.64,7.64,0,0,1-2.69.46h-2.86a.94.94,0,0,1-.39-.07c-.11-.05-.2-.19-.26-.43A5.49,5.49,0,0,1,510,35c0-.47,0-1.11,0-1.93s0-1.55,0-2a5.66,5.66,0,0,1,.13-1.1.68.68,0,0,1,.26-.44.71.71,0,0,1,.39-.1Zm6.13,14.3h-6.76V38.6h6.76Z" transform="translate(-64.62 -8.47)"/>
    <path class="cls-1" d="M535.46,29.42a.71.71,0,0,1,.39.1.69.69,0,0,1,.26.42,6,6,0,0,1,.13,1c0,.47,0,1.12,0,1.93s0,1.55,0,2.05a7,7,0,0,1-.13,1.11c-.07.25-.15.4-.26.45a.94.94,0,0,1-.39.07h-1.82a8,8,0,0,1-3.25-.58,5.7,5.7,0,0,1-2.14-1.54,6.06,6.06,0,0,1-1.19-2.28,10.47,10.47,0,0,1-.37-2.77V13.93h6.76v14.9a.53.53,0,0,0,.6.59Z" transform="translate(-64.62 -8.47)"/>
    <path class="cls-1" d="M536.87,29.42a.63.63,0,0,0,.44-.16.56.56,0,0,0,.19-.43,8.22,8.22,0,0,1,2-5.85,7.06,7.06,0,0,1,5.44-2.14A6.83,6.83,0,0,1,550.39,23a8.38,8.38,0,0,1,1.82,5.65,8.21,8.21,0,0,1-2,5.85,7.22,7.22,0,0,1-5.53,2.13,7.59,7.59,0,0,1-2.12-.3,4.57,4.57,0,0,1-1.78-.92,3.57,3.57,0,0,1-.95.63,6.28,6.28,0,0,1-1.11.37,7.11,7.11,0,0,1-1.4.18c-.52,0-1.14,0-1.85,0a.94.94,0,0,1-.39-.07c-.11-.05-.2-.19-.26-.43a5.49,5.49,0,0,1-.13-1.06c0-.47,0-1.11,0-1.93s0-1.55,0-2a5.66,5.66,0,0,1,.13-1.1.68.68,0,0,1,.26-.44.71.71,0,0,1,.39-.1Zm6.76-.81c0,.52.11.85.33,1a1.46,1.46,0,0,0,.82.22,1.29,1.29,0,0,0,.74-.22c.23-.15.34-.48.34-1q0-1.23-1.08-1.23C544,27.38,543.63,27.79,543.63,28.61Z" transform="translate(-64.62 -8.47)"/>
  </g>
  <g>
    <path class="cls-2" d="M72.12,32.76a3,3,0,0,1-1,2.54,4.66,4.66,0,0,1-5.1,0,3.09,3.09,0,0,1-.93-2.54,2.89,2.89,0,0,1,.93-2.47,5.06,5.06,0,0,1,5.1,0A2.84,2.84,0,0,1,72.12,32.76ZM66,28.27c-.15-1.12-.28-2.15-.39-3.11s-.2-1.88-.26-2.78-.11-1.82-.13-2.75,0-1.93,0-3V12.37h6.73v4.27c0,1.06,0,2.06,0,3s-.07,1.84-.13,2.75-.15,1.83-.26,2.78-.24,2-.39,3.11Z" transform="translate(-64.62 -8.47)"/>
    <path class="cls-2" d="M102.73,35a20.49,20.49,0,0,1-2.75-.18,5.18,5.18,0,0,1-2.38-.93,7,7,0,0,1-2.12.86,10.69,10.69,0,0,1-2.34.25,8.94,8.94,0,0,1-2.8-.42,6.19,6.19,0,0,1-2.21-1.27,5.38,5.38,0,0,1-1.43-2.11,8.18,8.18,0,0,1-.5-2.95v-1c0-.34,0-.6,0-.78a1.37,1.37,0,0,1,.09-.44H85.6a.6.6,0,0,0-.44.18.56.56,0,0,0-.19.41V42.79H78.25V27a9.73,9.73,0,0,1,.43-2.92,6.67,6.67,0,0,1,1.37-2.47,6.94,6.94,0,0,1,2.41-1.72A8.63,8.63,0,0,1,86,19.28h7.76a8.85,8.85,0,0,1,3.31.54,5.33,5.33,0,0,1,2.14,1.48,5.59,5.59,0,0,1,1.13,2.21,10.7,10.7,0,0,1,.33,2.71v1a.53.53,0,0,0,.19.43.64.64,0,0,0,.44.17h1.42a.86.86,0,0,1,.39.09.69.69,0,0,1,.27.43,3.78,3.78,0,0,1,.15,1c0,.47,0,1.11,0,1.93s0,1.55,0,2a4.5,4.5,0,0,1-.15,1.12c-.07.24-.16.39-.27.44A1,1,0,0,1,102.73,35Zm-9.36-6.53a1.25,1.25,0,0,0,.7-.19.67.67,0,0,0,.3-.63v-1a.67.67,0,0,0-.32-.63,1.37,1.37,0,0,0-.68-.19,1.44,1.44,0,0,0-.73.19.66.66,0,0,0-.31.63v1a.66.66,0,0,0,.31.63A1.35,1.35,0,0,0,93.37,28.49Z" transform="translate(-64.62 -8.47)"/>
    <path class="cls-2" d="M104.14,27.86a.64.64,0,0,0,.44-.17.53.53,0,0,0,.19-.43V21.73h6.76v5.53a.53.53,0,0,0,.59.6h1.41a.8.8,0,0,1,.39.09.61.61,0,0,1,.26.43,4.42,4.42,0,0,1,.13,1c0,.47,0,1.11,0,1.93s0,1.55,0,2a5.27,5.27,0,0,1-.13,1.12c-.06.24-.14.39-.26.44a.94.94,0,0,1-.39.07h-1.15a11.22,11.22,0,0,1-2.32-.22,3.63,3.63,0,0,1-1.84-1,4.29,4.29,0,0,1-1.8,1,7,7,0,0,1-1.65.22h-2a.94.94,0,0,1-.39-.07c-.12-.05-.2-.19-.26-.43a4.6,4.6,0,0,1-.13-1.05c0-.48,0-1.12,0-1.94s0-1.54,0-2a4.86,4.86,0,0,1,.13-1.09c.06-.24.14-.39.26-.45a.8.8,0,0,1,.39-.09Zm9.21,14.3H102.73V37h10.62Z" transform="translate(-64.62 -8.47)"/>
    <path class="cls-2" d="M115,27.86a.64.64,0,0,0,.44-.17.56.56,0,0,0,.19-.43V21.73h6.76v5.53a.52.52,0,0,0,.59.6h1.41a.8.8,0,0,1,.39.09.65.65,0,0,1,.26.43,5,5,0,0,1,.13,1c0,.47,0,1.11,0,1.93s0,1.55,0,2a6,6,0,0,1-.13,1.12c-.06.24-.15.39-.26.44a.94.94,0,0,1-.39.07h-1.15a11.22,11.22,0,0,1-2.32-.22,3.59,3.59,0,0,1-1.84-1,4.29,4.29,0,0,1-1.8,1,7,7,0,0,1-1.65.22h-2a1,1,0,0,1-.39-.07c-.11-.05-.19-.19-.26-.43a6.13,6.13,0,0,1-.13-1.05c0-.48,0-1.12,0-1.94s0-1.54,0-2a6.44,6.44,0,0,1,.13-1.09.72.72,0,0,1,.26-.45.83.83,0,0,1,.39-.09Zm7.39-8.17h-6.76V14.6h6.76Z" transform="translate(-64.62 -8.47)"/>
    <path class="cls-2" d="M131.7,27.86c.42,0,.63-.16.63-.49a1.29,1.29,0,0,0-.41-.74l-6.76-6.72V15l14.52-5.32,1.64,6.73-7.17,2.67L137,22q2,2,3.32,3.18a22.2,22.2,0,0,0,2.23,1.78,5.4,5.4,0,0,0,1.54.78,5,5,0,0,0,1.26.17H146a.72.72,0,0,1,.37.09.79.79,0,0,1,.26.43,4.76,4.76,0,0,1,.15,1c0,.47,0,1.11,0,1.93s0,1.55,0,2a5.71,5.71,0,0,1-.15,1.12c-.08.24-.16.39-.26.44A.84.84,0,0,1,146,35h-.64c-.86,0-1.61,0-2.24-.05a8.54,8.54,0,0,1-1.71-.26A5.24,5.24,0,0,1,140,34.1,8.1,8.1,0,0,1,138.64,33a5.55,5.55,0,0,1-2.3,1.56,8.88,8.88,0,0,1-3,.48h-9A.94.94,0,0,1,124,35c-.11-.05-.2-.19-.26-.43a6.13,6.13,0,0,1-.13-1.05c0-.48,0-1.12,0-1.94s0-1.54,0-2a6.44,6.44,0,0,1,.13-1.09A.68.68,0,0,1,124,28a.8.8,0,0,1,.39-.09Z" transform="translate(-64.62 -8.47)"/>
    <path class="cls-2" d="M147.41,27.86a.64.64,0,0,0,.44-.17.53.53,0,0,0,.19-.43V21.73h6.76v5.53a.53.53,0,0,0,.59.6h1.41a.8.8,0,0,1,.39.09.65.65,0,0,1,.26.43,4.42,4.42,0,0,1,.13,1c0,.47,0,1.11,0,1.93s0,1.55,0,2a5.27,5.27,0,0,1-.13,1.12c-.06.24-.15.39-.26.44a.94.94,0,0,1-.39.07h-1.15a11.22,11.22,0,0,1-2.32-.22,3.59,3.59,0,0,1-1.84-1,4.29,4.29,0,0,1-1.8,1A7,7,0,0,1,148,35h-2a1,1,0,0,1-.4-.07c-.11-.05-.19-.19-.25-.43a4.6,4.6,0,0,1-.13-1.05c0-.48,0-1.12,0-1.94s0-1.54,0-2a4.86,4.86,0,0,1,.13-1.09.67.67,0,0,1,.25-.45.87.87,0,0,1,.4-.09Zm9.21,14.3H146V37h10.62Z" transform="translate(-64.62 -8.47)"/>
    <path class="cls-2" d="M158.85,27.26a8.29,8.29,0,0,1,2-5.85,7.09,7.09,0,0,1,5.44-2.13,6.8,6.8,0,0,1,5.46,2.11A8.36,8.36,0,0,1,173.55,27v.22a.56.56,0,0,0,.19.43.64.64,0,0,0,.45.17h1.41A.7.7,0,0,1,176,28a.79.79,0,0,1,.26.43,4.76,4.76,0,0,1,.15,1c0,.47,0,1.11,0,1.93s0,1.55,0,2a5.71,5.71,0,0,1-.15,1.12c-.08.24-.16.39-.26.44a.82.82,0,0,1-.37.07,18.4,18.4,0,0,1-2.83-.2,5.58,5.58,0,0,1-2.41-1A8.07,8.07,0,0,1,166,35a7.57,7.57,0,0,1-2.11-.29,4.77,4.77,0,0,1-1.79-.93,3.52,3.52,0,0,1-.94.63,6.69,6.69,0,0,1-1.12.37,7.78,7.78,0,0,1-1.39.19q-.78,0-1.86,0a.94.94,0,0,1-.39-.07c-.11-.05-.19-.19-.26-.43a6.13,6.13,0,0,1-.13-1.05c0-.48,0-1.12,0-1.94s0-1.54,0-2a6.44,6.44,0,0,1,.13-1.09.72.72,0,0,1,.26-.45.8.8,0,0,1,.39-.09h1.41a.64.64,0,0,0,.45-.17A.56.56,0,0,0,158.85,27.26ZM165,27c0,.52.12.85.34,1a1.42,1.42,0,0,0,.82.23,1.3,1.3,0,0,0,.74-.23c.22-.15.33-.48.33-1,0-.82-.36-1.23-1.07-1.23S165,26.22,165,27Z" transform="translate(-64.62 -8.47)"/>
    <path class="cls-2" d="M177.86,27.86a.6.6,0,0,0,.41-.17.56.56,0,0,0,.19-.43V21.73h6.72v6.13a9,9,0,0,1-.5,3.12,6.22,6.22,0,0,1-1.39,2.22,5.89,5.89,0,0,1-2.14,1.36,7.64,7.64,0,0,1-2.69.46H175.6a.94.94,0,0,1-.39-.07c-.11-.05-.2-.19-.26-.43a5.26,5.26,0,0,1-.13-1.05c0-.48,0-1.12,0-1.94s0-1.54,0-2A5.54,5.54,0,0,1,175,28.4a.68.68,0,0,1,.26-.45.8.8,0,0,1,.39-.09Zm7.36-8.17h-6.76V14.6h6.76Z" transform="translate(-64.62 -8.47)"/>
    <path class="cls-2" d="M200.3,27.45a1.24,1.24,0,0,0-.08-.37c-.05-.15-.16-.44-.33-.86l-3-7.95,6.32-2.86,4.53,11.85a.82.82,0,0,0,.81.6h1.19a.8.8,0,0,1,.39.09.65.65,0,0,1,.26.43,5,5,0,0,1,.13,1c0,.47,0,1.11,0,1.93s0,1.55,0,2a6,6,0,0,1-.13,1.12c-.06.24-.15.39-.26.44a.94.94,0,0,1-.39.07h-1.82a9.16,9.16,0,0,1-1.82-.22,3.58,3.58,0,0,1-1.85-1A4.5,4.5,0,0,1,201.11,35h-9.39l-.6-7.16h8.69C200.13,27.86,200.3,27.72,200.3,27.45Z" transform="translate(-64.62 -8.47)"/>
    <path class="cls-2" d="M211.1,27.86a.64.64,0,0,0,.45-.17.56.56,0,0,0,.19-.43V21.73h6.76v5.53a.52.52,0,0,0,.59.6h1.41a.8.8,0,0,1,.39.09.65.65,0,0,1,.26.43,5,5,0,0,1,.13,1c0,.47,0,1.11,0,1.93s0,1.55,0,2a6,6,0,0,1-.13,1.12c-.06.24-.15.39-.26.44a.94.94,0,0,1-.39.07h-1.15A11.15,11.15,0,0,1,217,34.8a3.59,3.59,0,0,1-1.84-1,4.35,4.35,0,0,1-1.8,1,7,7,0,0,1-1.65.22h-2.05a.94.94,0,0,1-.39-.07c-.11-.05-.2-.19-.26-.43a6.13,6.13,0,0,1-.13-1.05c0-.48,0-1.12,0-1.94s0-1.54,0-2A6.44,6.44,0,0,1,209,28.4a.68.68,0,0,1,.26-.45.8.8,0,0,1,.39-.09Zm9.21,14.3H209.69V37h10.62Z" transform="translate(-64.62 -8.47)"/>
    <path class="cls-2" d="M221.91,27.86a.68.68,0,0,0,.45-.17.55.55,0,0,0,.18-.43V12.37h6.76V27.86a8.74,8.74,0,0,1-.52,3.19,6.17,6.17,0,0,1-1.41,2.23,5.63,5.63,0,0,1-2.13,1.32,8.4,8.4,0,0,1-2.7.42h-2a.94.94,0,0,1-.39-.07c-.11-.05-.2-.19-.26-.43a6.13,6.13,0,0,1-.13-1.05c0-.48,0-1.12,0-1.94s0-1.54,0-2a6.44,6.44,0,0,1,.13-1.09.68.68,0,0,1,.26-.45.8.8,0,0,1,.39-.09Z" transform="translate(-64.62 -8.47)"/>
    <path class="cls-2" d="M249.1,27.86a.7.7,0,0,1,.37.09.68.68,0,0,1,.24.43,5,5,0,0,1,.13,1c0,.47,0,1.11,0,1.93s0,1.55,0,2a6,6,0,0,1-.13,1.12c-.06.24-.14.39-.24.44a.82.82,0,0,1-.37.07H247a11.61,11.61,0,0,1-.83,4,8.72,8.72,0,0,1-2,2.88,8,8,0,0,1-2.9,1.76,10.69,10.69,0,0,1-3.64.6h-5.53l-.41-7.17h6.35a2.43,2.43,0,0,0,1.73-.49,2.1,2.1,0,0,0,.5-1.56h-.6a11.89,11.89,0,0,1-3.79-.51A5.46,5.46,0,0,1,233.59,33a5.29,5.29,0,0,1-1.15-2.32,13.69,13.69,0,0,1-.31-3,9.69,9.69,0,0,1,.48-3.05A7.47,7.47,0,0,1,234,22.08a7,7,0,0,1,2.32-1.75,7.28,7.28,0,0,1,3.12-.64,9.31,9.31,0,0,1,2.9.44,6.41,6.41,0,0,1,2.41,1.43,6.91,6.91,0,0,1,1.65,2.53,10.15,10.15,0,0,1,.62,3.77Zm-10.62-.63a1.63,1.63,0,0,0,.22.92c.15.23.48.34,1,.34h1v-1c0-.94-.39-1.41-1.16-1.41S238.48,26.43,238.48,27.23Z" transform="translate(-64.62 -8.47)"/>
    <path class="cls-2" d="M251.36,27.86a.6.6,0,0,0,.41-.17.53.53,0,0,0,.19-.43V21.73h6.72v6.13a9,9,0,0,1-.5,3.12,6.09,6.09,0,0,1-1.39,2.22,5.89,5.89,0,0,1-2.14,1.36A7.64,7.64,0,0,1,252,35H249.1a.94.94,0,0,1-.39-.07c-.11-.05-.2-.19-.26-.43a5.26,5.26,0,0,1-.13-1.05c0-.48,0-1.12,0-1.94s0-1.54,0-2a5.54,5.54,0,0,1,.13-1.09.68.68,0,0,1,.26-.45.8.8,0,0,1,.39-.09Zm8.36-8.17H249.1V14.6h10.62Z" transform="translate(-64.62 -8.47)"/>
    <path class="cls-2" d="M294.26,27.26a.53.53,0,0,0,.6.6.64.64,0,0,0,.44-.17.53.53,0,0,0,.19-.43V21.73H302v6.13a7.76,7.76,0,0,1-.6,3.19,6.29,6.29,0,0,1-1.59,2.23,6.63,6.63,0,0,1-2.29,1.32,8.45,8.45,0,0,1-2.65.42A9.08,9.08,0,0,1,293,34.8a3.61,3.61,0,0,1-1.86-1,4.77,4.77,0,0,1-1.76,1,5.4,5.4,0,0,1-1.32.22,7.18,7.18,0,0,1-1.47-.14,3.33,3.33,0,0,1-1.17-.45l1-1.67a12,12,0,0,1-.67,4.05,9.61,9.61,0,0,1-2,3.32,9.16,9.16,0,0,1-3.13,2.25,10.51,10.51,0,0,1-4.24.82h-1.85a11.2,11.2,0,0,1-4.11-.71,8.39,8.39,0,0,1-3.06-2,8.61,8.61,0,0,1-1.93-3.22,12.63,12.63,0,0,1-.67-4.27V25.22h6.72v8a2.73,2.73,0,0,0,.82,2.15,3.81,3.81,0,0,0,2.63.74h1.23a4.09,4.09,0,0,0,2.86-.81,2.76,2.76,0,0,0,.85-2.08V21.73h6.5v5.53a.53.53,0,0,0,.19.43.64.64,0,0,0,.44.17.53.53,0,0,0,.6-.6V21.73h6.57Zm1.82-7.57H285.46V14.6h10.62Zm-2.67-6.13H288.1V8.47h5.31Z" transform="translate(-64.62 -8.47)"/>
    <path class="cls-2" d="M311.42,33.39a11,11,0,0,1-.7,3.94,10.18,10.18,0,0,1-2,3.25,9.16,9.16,0,0,1-6.95,3h-4.08l-.63-7.13H301a4,4,0,0,0,2.84-.81,2.78,2.78,0,0,0,.83-2V21.73h6.76Zm0-13.7h-6.76V14.6h6.76Z" transform="translate(-64.62 -8.47)"/>
    <path class="cls-2" d="M331,27.86a.68.68,0,0,1,.37.09.73.73,0,0,1,.25.43,5.85,5.85,0,0,1,.13,1c0,.47,0,1.11,0,1.93s0,1.55,0,2a7,7,0,0,1-.13,1.12c-.07.24-.15.39-.25.44A.79.79,0,0,1,331,35h-2.11a11.85,11.85,0,0,1-.84,4,8.43,8.43,0,0,1-1.95,2.88,7.93,7.93,0,0,1-2.9,1.76,10.65,10.65,0,0,1-3.64.6h-5.53l-.41-7.17H320a2.42,2.42,0,0,0,1.73-.49,2.1,2.1,0,0,0,.5-1.56h-.59a11.84,11.84,0,0,1-3.79-.51A5.4,5.4,0,0,1,315.53,33a5.18,5.18,0,0,1-1.15-2.32,13.1,13.1,0,0,1-.32-3,9.69,9.69,0,0,1,.48-3.05A7.47,7.47,0,0,1,316,22.08a7.11,7.11,0,0,1,2.32-1.75,7.28,7.28,0,0,1,3.12-.64,9.26,9.26,0,0,1,2.9.44,6.45,6.45,0,0,1,2.42,1.43,7,7,0,0,1,1.65,2.53,10.16,10.16,0,0,1,.61,3.77Zm-10.62-.63a1.63,1.63,0,0,0,.22.92c.15.23.49.34,1,.34h1v-1c0-.94-.38-1.41-1.15-1.41S320.41,26.43,320.41,27.23Z" transform="translate(-64.62 -8.47)"/>
    <path class="cls-2" d="M332.44,27.86a.64.64,0,0,0,.45-.17.56.56,0,0,0,.19-.43,8.29,8.29,0,0,1,2-5.85,7.1,7.1,0,0,1,5.45-2.13A6.79,6.79,0,0,1,346,21.39,8.36,8.36,0,0,1,347.78,27a8.18,8.18,0,0,1-2,5.85A7.24,7.24,0,0,1,340.24,35a7.57,7.57,0,0,1-2.11-.29,4.65,4.65,0,0,1-1.78-.93,3.73,3.73,0,0,1-1,.63,6.69,6.69,0,0,1-1.12.37,7.65,7.65,0,0,1-1.39.19q-.78,0-1.86,0a1,1,0,0,1-.39-.07c-.11-.05-.19-.19-.26-.43a6.13,6.13,0,0,1-.13-1.05c0-.48,0-1.12,0-1.94s0-1.54,0-2a6.44,6.44,0,0,1,.13-1.09.72.72,0,0,1,.26-.45.86.86,0,0,1,.39-.09ZM339.2,27c0,.52.12.85.34,1a1.42,1.42,0,0,0,.82.23,1.3,1.3,0,0,0,.74-.23c.22-.15.33-.48.33-1,0-.82-.36-1.23-1.07-1.23S339.2,26.22,339.2,27Z" transform="translate(-64.62 -8.47)"/>
    <path class="cls-2" d="M351.05,14.37a2.54,2.54,0,0,0-.76.1,1.17,1.17,0,0,0-.57.61l-1.34,2.56-4.27-2.26,1.41-3.05a11.65,11.65,0,0,1,1-1.73,4.37,4.37,0,0,1,1.08-1.07A3.81,3.81,0,0,1,349,9a11.91,11.91,0,0,1,2.06-.15h7.76v5.53Zm-1,2.05h6.76V35h-6.76Z" transform="translate(-64.62 -8.47)"/>
    <path class="cls-2" d="M372.52,34.43l.63-6.57h14.3a.7.7,0,0,1,.37.09.74.74,0,0,1,.26.43,3.78,3.78,0,0,1,.15,1c0,.47,0,1.11,0,1.93s0,1.55,0,2a4.5,4.5,0,0,1-.15,1.12.7.7,0,0,1-.26.44.82.82,0,0,1-.37.07h-1.67a8.84,8.84,0,0,1-.91,3.33,8.19,8.19,0,0,1-2.06,2.58,9.32,9.32,0,0,1-3.12,1.67,13.07,13.07,0,0,1-4.09.6h-2.67a11.2,11.2,0,0,1-4.11-.71,8.39,8.39,0,0,1-3.06-2,8.74,8.74,0,0,1-1.93-3.22,12.63,12.63,0,0,1-.67-4.27V25.22h6.72v8a2.73,2.73,0,0,0,.82,2.15,3.82,3.82,0,0,0,2.64.74h3.3a7.26,7.26,0,0,0,1.86-.2c.52-.14.78-.41.78-.84a.52.52,0,0,0-.59-.59Z" transform="translate(-64.62 -8.47)"/>
    <path class="cls-2" d="M388.86,27.86a.68.68,0,0,0,.45-.17.55.55,0,0,0,.18-.43V21.73h6.76v5.53a.53.53,0,0,0,.6.6h1.41a.8.8,0,0,1,.39.09.65.65,0,0,1,.26.43,5.85,5.85,0,0,1,.13,1c0,.47,0,1.11,0,1.93s0,1.55,0,2a7,7,0,0,1-.13,1.12c-.06.24-.15.39-.26.44a.94.94,0,0,1-.39.07h-1.15a11.15,11.15,0,0,1-2.32-.22,3.59,3.59,0,0,1-1.84-1,4.41,4.41,0,0,1-1.8,1,7,7,0,0,1-1.66.22h-2a.94.94,0,0,1-.39-.07c-.11-.05-.2-.19-.26-.43a6.13,6.13,0,0,1-.13-1.05c0-.48,0-1.12,0-1.94s0-1.54,0-2a6.44,6.44,0,0,1,.13-1.09.68.68,0,0,1,.26-.45.8.8,0,0,1,.39-.09Zm9.21-8.17H387.45V14.6h10.62Z" transform="translate(-64.62 -8.47)"/>
    <path class="cls-2" d="M400.3,27.26a8.25,8.25,0,0,1,2-5.85,7.07,7.07,0,0,1,5.44-2.13,6.8,6.8,0,0,1,5.46,2.11A8.41,8.41,0,0,1,415,27v.22a.55.55,0,0,0,.18.43.68.68,0,0,0,.45.17h1.41a.7.7,0,0,1,.37.09.74.74,0,0,1,.26.43,3.78,3.78,0,0,1,.15,1c0,.47,0,1.11,0,1.93s0,1.55,0,2a4.5,4.5,0,0,1-.15,1.12.7.7,0,0,1-.26.44.82.82,0,0,1-.37.07,18.17,18.17,0,0,1-2.82-.2,5.62,5.62,0,0,1-2.42-1A8,8,0,0,1,407.47,35a7.64,7.64,0,0,1-2.12-.29,4.72,4.72,0,0,1-1.78-.93,3.57,3.57,0,0,1-.95.63,6.28,6.28,0,0,1-1.11.37,7.78,7.78,0,0,1-1.39.19q-.78,0-1.86,0a.94.94,0,0,1-.39-.07c-.11-.05-.2-.19-.26-.43a5.26,5.26,0,0,1-.13-1.05c0-.48,0-1.12,0-1.94s0-1.54,0-2a5.54,5.54,0,0,1,.13-1.09.68.68,0,0,1,.26-.45.8.8,0,0,1,.39-.09h1.41a.68.68,0,0,0,.45-.17A.55.55,0,0,0,400.3,27.26Zm6.13-.22c0,.52.11.85.33,1a1.46,1.46,0,0,0,.82.23,1.3,1.3,0,0,0,.74-.23c.23-.15.34-.48.34-1q0-1.23-1.08-1.23C406.81,25.81,406.43,26.22,406.43,27Z" transform="translate(-64.62 -8.47)"/>
    <path class="cls-2" d="M418.46,27.86a.64.64,0,0,0,.45-.17.56.56,0,0,0,.19-.43V21.73h6.75v5.53a.53.53,0,0,0,.6.6h1.41a.8.8,0,0,1,.39.09.65.65,0,0,1,.26.43,5,5,0,0,1,.13,1c0,.47,0,1.11,0,1.93s0,1.55,0,2a6,6,0,0,1-.13,1.12c-.06.24-.15.39-.26.44a.94.94,0,0,1-.39.07h-1.15a11.15,11.15,0,0,1-2.32-.22,3.59,3.59,0,0,1-1.84-1,4.41,4.41,0,0,1-1.8,1,7,7,0,0,1-1.65.22h-2.05a.94.94,0,0,1-.39-.07c-.11-.05-.2-.19-.26-.43a6.13,6.13,0,0,1-.13-1.05c0-.48,0-1.12,0-1.94s0-1.54,0-2a6.44,6.44,0,0,1,.13-1.09.68.68,0,0,1,.26-.45.8.8,0,0,1,.39-.09Zm9.22,14.3H417.05V37h10.63Z" transform="translate(-64.62 -8.47)"/>
    <path class="cls-2" d="M430.31,27.86a6.52,6.52,0,0,1-.31-1.23,6.83,6.83,0,0,1-.1-1.19,7.26,7.26,0,0,1,.47-2.5,6.83,6.83,0,0,1,1.39-2.31,7.36,7.36,0,0,1,2.36-1.69,7.84,7.84,0,0,1,3.32-.67,9.43,9.43,0,0,1,3,.45,5.79,5.79,0,0,1,2.34,1.41,6.72,6.72,0,0,1,1.53,2.53,11.36,11.36,0,0,1,.55,3.79v1.41a7.78,7.78,0,0,1-.5,2.86A6,6,0,0,1,442.79,33a7.06,7.06,0,0,1-2.62,1.51,11.53,11.53,0,0,1-3.73.53h-8.58a.94.94,0,0,1-.39-.07c-.11-.05-.2-.19-.26-.43a5.26,5.26,0,0,1-.13-1.05c0-.48,0-1.12,0-1.94s0-1.54,0-2a5.54,5.54,0,0,1,.13-1.09.68.68,0,0,1,.26-.45.8.8,0,0,1,.39-.09Zm12.26-11.63H432V11.14h10.62Zm-4.31,11.85a1.53,1.53,0,0,0,.2-.74c0-.3,0-.6,0-.89a2.61,2.61,0,0,0-.24-1.14,1.16,1.16,0,0,0-1.71-.22,1,1,0,0,0-.28.72,2.27,2.27,0,0,0,.32,1A3.55,3.55,0,0,0,438.26,28.08Z" transform="translate(-64.62 -8.47)"/>
    <path class="cls-2" d="M461.29,27.34c0,.34.19.52.59.52h1.41a.8.8,0,0,1,.39.09.65.65,0,0,1,.26.43,5,5,0,0,1,.13,1c0,.47,0,1.11,0,1.93s0,1.55,0,2a6,6,0,0,1-.13,1.12c-.06.24-.15.39-.26.44a.94.94,0,0,1-.39.07h-.59a8.92,8.92,0,0,1-1.56-.11,10.72,10.72,0,0,1-1,3.4,9.9,9.9,0,0,1-2,2.75,9.39,9.39,0,0,1-2.88,1.86,9.2,9.2,0,0,1-3.58.68h-4.09L447,36.47h3.9a4,4,0,0,0,2.84-.81,2.75,2.75,0,0,0,.84-2V21.73h6.76Z" transform="translate(-64.62 -8.47)"/>
    <path class="cls-2" d="M465.56,27.86a5.5,5.5,0,0,1-.23-1.82,6.21,6.21,0,0,1,.56-2.55,7.26,7.26,0,0,1,1.56-2.23,7.6,7.6,0,0,1,2.43-1.57,8.29,8.29,0,0,1,3.22-.6,5.7,5.7,0,0,1,1.78.26l3.75-3.71,7.43,7.87a7.68,7.68,0,0,1,1.71,2.58,7.27,7.27,0,0,1,.44,2.4,6.78,6.78,0,0,1-.48,2.56,5.91,5.91,0,0,1-1.41,2.08,6.43,6.43,0,0,1-2.25,1.39,8.22,8.22,0,0,1-3,.5h-4.49c-.84,0-1.62,0-2.32-.05a8.36,8.36,0,0,1-2-.35,14.18,14.18,0,0,1-2.6.35c-.92,0-1.68.05-2.3.05h-4.09a.94.94,0,0,1-.39-.07c-.11-.05-.2-.19-.26-.43a6.13,6.13,0,0,1-.13-1.05c0-.48,0-1.12,0-1.94s0-1.54,0-2a6.44,6.44,0,0,1,.13-1.09.68.68,0,0,1,.26-.45.8.8,0,0,1,.39-.09Zm6.83.22a2.64,2.64,0,0,0,.8-.76,1.92,1.92,0,0,0,.32-1.1,1.25,1.25,0,0,0-.3-.81,1.07,1.07,0,0,0-1.64,0,1.3,1.3,0,0,0-.29.81,1.92,1.92,0,0,0,.31,1.1A2.64,2.64,0,0,0,472.39,28.08Zm8.88-.74a.57.57,0,0,0-.08-.28,1.81,1.81,0,0,0-.26-.35,6.54,6.54,0,0,0-.55-.58l-.93-.91v.22a7.06,7.06,0,0,1-.13,1.36,10.56,10.56,0,0,1-.28,1.06h1.41a1.19,1.19,0,0,0,.65-.13A.48.48,0,0,0,481.27,27.34Z" transform="translate(-64.62 -8.47)"/>
    <path class="cls-2" d="M509.24,27.26a.55.55,0,0,0,.18.43.66.66,0,0,0,.45.17h1.41a.8.8,0,0,1,.39.09.65.65,0,0,1,.26.43,5.85,5.85,0,0,1,.13,1c0,.47,0,1.11,0,1.93s0,1.55,0,2a7,7,0,0,1-.13,1.12c-.06.24-.15.39-.26.44a.94.94,0,0,1-.39.07h-1.63a6.49,6.49,0,0,1-2.62-.53,3.62,3.62,0,0,1-1.88-2.1,5,5,0,0,1-1.91,1,10.09,10.09,0,0,1-2.36.24,8.07,8.07,0,0,1-2.66-.42,5.4,5.4,0,0,1-2.08-1.34,6,6,0,0,1-1.33-2.3,10.57,10.57,0,0,1-.47-3.33,8.82,8.82,0,0,1,.5-2.88,8.41,8.41,0,0,1,1.42-2.54A7.18,7.18,0,0,1,498.48,19a6.26,6.26,0,0,1,3-.71h1V16h6.73ZM500.66,26c0,.42.09.69.28.81a1.28,1.28,0,0,0,.76.19,1.24,1.24,0,0,0,.91-.28,1,1,0,0,0,.28-.72V24.81h-1A1.08,1.08,0,0,0,500.66,26Z" transform="translate(-64.62 -8.47)"/>
    <path class="cls-2" d="M513.54,27.86a.6.6,0,0,0,.41-.17.53.53,0,0,0,.19-.43V21.73h6.72v6.13a9,9,0,0,1-.5,3.12A6.09,6.09,0,0,1,519,33.2a5.89,5.89,0,0,1-2.14,1.36,7.64,7.64,0,0,1-2.69.46h-2.86a.94.94,0,0,1-.39-.07c-.11-.05-.2-.19-.26-.43a5.26,5.26,0,0,1-.13-1.05c0-.48,0-1.12,0-1.94s0-1.54,0-2a5.54,5.54,0,0,1,.13-1.09.68.68,0,0,1,.26-.45.8.8,0,0,1,.39-.09Zm6.13,14.3h-6.76V37h6.76Z" transform="translate(-64.62 -8.47)"/>
    <path class="cls-2" d="M536,27.86a.8.8,0,0,1,.39.09.69.69,0,0,1,.26.43,5.85,5.85,0,0,1,.13,1c0,.47,0,1.11,0,1.93s0,1.55,0,2a7,7,0,0,1-.13,1.12c-.07.24-.15.39-.26.44A.94.94,0,0,1,536,35h-1.82a8.19,8.19,0,0,1-3.25-.57,5.81,5.81,0,0,1-2.14-1.54,6.18,6.18,0,0,1-1.19-2.29,10.45,10.45,0,0,1-.37-2.76V12.37H534V27.26a.53.53,0,0,0,.6.6Z" transform="translate(-64.62 -8.47)"/>
    <path class="cls-2" d="M537.39,27.86a.64.64,0,0,0,.44-.17.53.53,0,0,0,.19-.43,8.25,8.25,0,0,1,2-5.85,7.07,7.07,0,0,1,5.44-2.13,6.83,6.83,0,0,1,5.46,2.11A8.41,8.41,0,0,1,552.73,27a8.18,8.18,0,0,1-2,5.85A7.22,7.22,0,0,1,545.19,35a7.58,7.58,0,0,1-2.12-.29,4.72,4.72,0,0,1-1.78-.93,3.57,3.57,0,0,1-.95.63,6.28,6.28,0,0,1-1.11.37,7.9,7.9,0,0,1-1.4.19c-.52,0-1.14,0-1.85,0a.94.94,0,0,1-.39-.07c-.11-.05-.2-.19-.26-.43a5.26,5.26,0,0,1-.13-1.05c0-.48,0-1.12,0-1.94s0-1.54,0-2a5.54,5.54,0,0,1,.13-1.09.68.68,0,0,1,.26-.45.8.8,0,0,1,.39-.09Zm6.76-.82c0,.52.11.85.33,1a1.46,1.46,0,0,0,.82.23A1.3,1.3,0,0,0,546,28c.23-.15.34-.48.34-1q0-1.23-1.08-1.23C544.53,25.81,544.15,26.22,544.15,27Z" transform="translate(-64.62 -8.47)"/>
  </g>
</svg>
