<svg id="outputsvg" xmlns="http://www.w3.org/2000/svg" width="102.91" height="56.84" viewBox="0 0 102.91 56.84">
  <defs>
    <style>
      .cls-1 {
        fill: #2ed573;
      }
    </style>
  </defs>
  <g id="l4MJZhkQsVtj2p2K2p2vBUa">
    <g>
      <path id="prpcKirdQ" class="cls-1" d="M59.6,59.4a6.11,6.11,0,0,1,.8-9c5.5-3.5,11.4,3.9,7,8.7A5.36,5.36,0,0,1,59.6,59.4Z" transform="translate(-2.09 -4.11)"/>
      <path id="pRjhaL6e3" class="cls-1" d="M32,57.5c-1-1.2,0-2.8,6-9.4,8.5-9.5,11.4-10.8,19.3-9.1,4.6,1.1,5.8,1,8.5-.4,3.4-1.7,4.8-5.1,3.8-8.9s1.2-9.5,4.7-12a56.74,56.74,0,0,1,10-5.1C88,11,91.9,8.6,93,7.3s2.4-2.2,3-1.8c2.4,1.5.3,16.9-3.1,21.6C90.2,31,84,34,77.6,34.7c-4,.5-5.6,1.2-7.4,3.4L67.8,41h2.9c1.6,0,6.9-1.4,11.8-3S93,35,94.9,35c4.6,0,10.1,3.3,10.1,6,0,2.9-2.8,6.9-6.1,8.6-4.1,2.1-17,1.8-26.5-.7C61.6,46.1,58,46.8,47.9,53.6,39.4,59.2,34.5,60.5,32,57.5ZM86.9,29.2c4.4-3.2,6.2-6.6,6.8-12.6.4-3.4.2-5.7-.3-5.4s-3.1,1.4-5.9,2.6C74.3,19.7,72,21.7,72,27.1c0,1.5.8,1.1,4.3-2.5,4.1-4.3,11.4-7.5,13.7-6.1,1.7,1,.2,2.2-3.4,2.8-4.2.7-9.3,4.3-11.2,7.9A17.71,17.71,0,0,0,74,32.3C74,33.4,84.8,30.8,86.9,29.2Z" transform="translate(-2.09 -4.11)"/>
      <path id="pqKGr4eFc" class="cls-1" d="M21.2,52.8C18.4,50,21,46,27.6,42.7,32,40.4,36,35.4,36,32a74.07,74.07,0,0,0-1.6-10.4C32,9.8,33.4,5.9,39.3,7.4c3.5.8,6,5.9,8.2,16.3l1.8,8.1-6.4,6.8C29.3,52.9,28.1,54,25.2,54A6.56,6.56,0,0,1,21.2,52.8Z" transform="translate(-2.09 -4.11)"/>
      <path id="p5SVQMwtH" class="cls-1" d="M6.5,39.7C-1.2,32,1.8,15,10.8,15c4.7,0,5.7,2.1,4.5,8.8S15.4,34,19.5,34c3.2,0,4.5-3.1,4.5-10.6,0-6,1.3-7.4,4.9-5.5,2.5,1.4,4.5,8.3,3.7,12.9C31.3,38.8,25.7,43,16.2,43,10.3,43,9.5,42.7,6.5,39.7Z" transform="translate(-2.09 -4.11)"/>
      <path id="pXF4jCLau" class="cls-1" d="M50.4,28.5c-2.2-3.3-.7-7.1,3.2-8.1,4.8-1.2,8.5,2.7,6.8,7.3-.8,2.3-1.6,2.9-4.6,3.1S51.8,30.7,50.4,28.5Z" transform="translate(-2.09 -4.11)"/>
      <path id="p16TE56nOQ" class="cls-1" d="M16.1,13.4C13.5,10.1,13.5,8.5,16,6s4.8-2.5,7.8-.4c2.8,1.9,2.9,5.7.2,8.4S18.5,16.5,16.1,13.4Z" transform="translate(-2.09 -4.11)"/>
    </g>
  </g>
</svg>
